<?xml version="1.0" encoding="UTF-8"?> <svg xmlns="http://www.w3.org/2000/svg" xmlns:xlink="http://www.w3.org/1999/xlink" viewBox="0 0 501.63 90.87"> <defs> <style>.cls-1,.cls-6{fill:#e62e47;}.cls-2{fill:none;}.cls-3,.cls-8{fill:#fff;}.cls-4{fill:#afafaf;}.cls-5{clip-path:url(#clip-path);}.cls-10,.cls-11,.cls-13,.cls-14,.cls-6,.cls-8{fill-rule:evenodd;}.cls-7{opacity:0.2;}.cls-9{clip-path:url(#clip-path-2);}.cls-10{fill:#4e8b60;}.cls-11{fill:url(#Безымянный_градиент_4);}.cls-12{clip-path:url(#clip-path-3);}.cls-13{fill:#274f9f;}.cls-14{fill:url(#Безымянный_градиент_4-2);}</style> <clipPath id="clip-path"> <path class="cls-1" d="M73.25,89.57V37.94a6.79,6.79,0,0,0-6.77-6.77H8.39a6.79,6.79,0,0,0-6.77,6.77V89.57Z"></path> </clipPath> <clipPath id="clip-path-2"> <path class="cls-2" d="M108.5,89.57V20.5a6.79,6.79,0,0,0-6.77-6.77H43.65a6.79,6.79,0,0,0-6.77,6.77v6.24h29.6A11.16,11.16,0,0,1,77.66,37.88v.06h0V89.57Z"></path> </clipPath> <linearGradient id="Безымянный_градиент_4" x1="57.47" y1="59.47" x2="130.96" y2="-14.03" gradientTransform="matrix(1, 0, 0, -1, 0, 92)" gradientUnits="userSpaceOnUse"> <stop offset="0" stop-color="#fff"></stop> <stop offset="1" stop-color="#fff"></stop> </linearGradient> <clipPath id="clip-path-3"> <path class="cls-2" d="M144.5,89.57V6.77A6.79,6.79,0,0,0,137.73,0H79.65a6.79,6.79,0,0,0-6.77,6.77V9.3h28.85a11.1,11.1,0,0,1,7.9,3.27h0a11.17,11.17,0,0,1,3.27,7.91h0V89.57Z"></path> </clipPath> <linearGradient id="Безымянный_градиент_4-2" x1="57.47" y1="32.53" x2="130.96" y2="106.03" gradientTransform="matrix(1, 0, 0, 1, 0, 0)" xlink:href="#Безымянный_градиент_4"></linearGradient> </defs> <title>logo_polywall</title> <g id="Слой_2" data-name="Слой 2"> <g id="Слой_1-2" data-name="Слой 1"> <path class="cls-3" d="M169.08,54.8V8.8h17.34a42.06,42.06,0,0,1,7,.43,14,14,0,0,1,5.68,2.15,11.33,11.33,0,0,1,3.68,4.44,14.15,14.15,0,0,1,1.4,6.27A14.17,14.17,0,0,1,200.44,32q-3.72,4.11-13.44,4.1H175.2V54.8Zm6.08-24.12h11.89c3.93,0,6.72-.74,8.38-2.2a7.82,7.82,0,0,0,2.47-6.18,8.35,8.35,0,0,0-1.45-4.94,6.85,6.85,0,0,0-3.85-2.71,26.28,26.28,0,0,0-5.67-.41H175.16Z"></path> <path class="cls-3" d="M210.07,32.4q0-11.44,6.15-17.92T232.09,8a22,22,0,0,1,11.48,3,19.85,19.85,0,0,1,7.79,8.49,27.56,27.56,0,0,1,2.69,12.34,27.11,27.11,0,0,1-2.83,12.51,19.28,19.28,0,0,1-8,8.36,23,23,0,0,1-11.17,2.84,21.63,21.63,0,0,1-11.6-3.14,20.11,20.11,0,0,1-7.75-8.56A25.92,25.92,0,0,1,210.07,32.4Zm6.28.1q0,8.31,4.47,13.09a15.6,15.6,0,0,0,22.06.41l.46-.46q4.42-4.83,4.43-13.7a23.56,23.56,0,0,0-1.89-9.8,14.59,14.59,0,0,0-5.56-6.5,15,15,0,0,0-8.2-2.3A15.59,15.59,0,0,0,221,17.68Q216.35,22.1,216.35,32.5Z"></path> <path class="cls-3" d="M261.64,54.8V8.8h6.08V49.37h22.65V54.8Z"></path> <path class="cls-3" d="M305.8,54.8V35.32L288.08,8.82h7.4l9.06,13.86c1.68,2.59,3.23,5.18,4.68,7.78q2.07-3.62,5-8.13l8.91-13.51h7.09l-18.35,26.5V54.8Z"></path> <path class="cls-3" d="M343.72,54.8l-12.2-46h6.24l7,30.14c.76,3.15,1.4,6.29,1.95,9.41q1.76-7.38,2.07-8.5l8.75-31h7.34l6.58,23.27A122,122,0,0,1,375,48.37q.87-4.36,2.29-10L384.5,8.83h6.12L378,54.8h-5.86l-9.7-35c-.81-2.93-1.29-4.72-1.44-5.39q-.72,3.16-1.35,5.39l-9.75,35Z"></path> <path class="cls-3" d="M388.88,54.8l17.66-46h6.56l18.81,46H425l-5.36-13.93H400.39L395.34,54.8Zm13.27-18.89h15.59l-4.8-12.73q-2.2-5.8-3.26-9.53a59.32,59.32,0,0,1-2.48,8.78Z"></path> <path class="cls-3" d="M436.52,54.8V8.8h6.09V49.37h22.64V54.8Z"></path> <path class="cls-3" d="M472.25,54.8V8.8h6.08V49.37H501V54.8Z"></path> <path class="cls-3" d="M169.1,82l5.41-14h2l5.77,14h-2.12l-1.64-4.26h-5.89L171.08,82Zm4.06-5.78h4.78l-1.47-3.9c-.45-1.19-.78-2.16-1-2.93a17.59,17.59,0,0,1-.76,2.69Z"></path> <path class="cls-3" d="M185.25,82V68h1.91l7.4,11V68h1.79V82h-1.91L187,71V82Z"></path> <path class="cls-3" d="M205,82V76l-5.48-8h2.27l2.77,4.25c.52.8,1,1.59,1.44,2.39q.63-1.11,1.53-2.49L210.26,68h2.17l-5.62,8.13v6Z"></path> <path class="cls-3" d="M221.58,77.52l1.76-.16a3.83,3.83,0,0,0,.58,1.74,3.11,3.11,0,0,0,1.41,1.09,5.41,5.41,0,0,0,2.17.42,5.24,5.24,0,0,0,1.88-.32,2.67,2.67,0,0,0,1.22-.87,2,2,0,0,0,.4-1.2,1.81,1.81,0,0,0-.39-1.16,2.85,2.85,0,0,0-1.27-.83,21.66,21.66,0,0,0-2.51-.69,12.35,12.35,0,0,1-2.72-.88,3.87,3.87,0,0,1-1.5-1.31,3.17,3.17,0,0,1-.49-1.75,3.64,3.64,0,0,1,.6-2,3.72,3.72,0,0,1,1.77-1.41,6.71,6.71,0,0,1,2.58-.48,6.92,6.92,0,0,1,2.77.51,4,4,0,0,1,1.84,1.48,4.27,4.27,0,0,1,.69,2.22l-1.79.14a2.87,2.87,0,0,0-1-2,5,5,0,0,0-4.92-.06,1.87,1.87,0,0,0-.78,1.49,1.6,1.6,0,0,0,.55,1.25,7.46,7.46,0,0,0,2.81,1,18.85,18.85,0,0,1,3.12.9,4.35,4.35,0,0,1,1.82,1.44,3.54,3.54,0,0,1,.58,2,3.82,3.82,0,0,1-.64,2.12,4.3,4.3,0,0,1-1.85,1.55,6.37,6.37,0,0,1-2.72.55,8.15,8.15,0,0,1-3.2-.55,4.6,4.6,0,0,1-2-1.68A4.71,4.71,0,0,1,221.58,77.52Z"></path> <path class="cls-3" d="M236.27,75.18a7.61,7.61,0,0,1,1.88-5.49,6.41,6.41,0,0,1,4.86-2,6.69,6.69,0,0,1,3.52.94,6,6,0,0,1,2.39,2.6,9,9,0,0,1,0,7.61,6,6,0,0,1-2.45,2.56,7,7,0,0,1-3.43.87,6.67,6.67,0,0,1-3.55-1,6.15,6.15,0,0,1-2.38-2.62A8.06,8.06,0,0,1,236.27,75.18Zm1.92,0a5.64,5.64,0,0,0,1.37,4,4.76,4.76,0,0,0,6.74.16c.06,0,.11-.11.16-.16a6,6,0,0,0,1.36-4.2,7.36,7.36,0,0,0-.58-3A4.5,4.5,0,0,0,243,69.27a4.73,4.73,0,0,0-3.4,1.36c-1,1-1.43,2.46-1.43,4.58Z"></path> <path class="cls-3" d="M262.88,68h1.87v8.14a9.68,9.68,0,0,1-.48,3.38,4.09,4.09,0,0,1-1.74,2,6.18,6.18,0,0,1-3.29.78,6.72,6.72,0,0,1-3.24-.7,3.85,3.85,0,0,1-1.79-2,9.47,9.47,0,0,1-.54-3.54V68h1.86v8.13a8,8,0,0,0,.34,2.71,2.58,2.58,0,0,0,1.18,1.34,4.09,4.09,0,0,0,2,.47,3.87,3.87,0,0,0,2.93-.93c.58-.62.87-1.82.87-3.59Z"></path> <path class="cls-3" d="M269.38,82V68h6.24a8.47,8.47,0,0,1,2.87.38,3.19,3.19,0,0,1,1.56,1.34,4,4,0,0,1,.59,2.13,3.53,3.53,0,0,1-1,2.53,4.93,4.93,0,0,1-3,1.3,4.86,4.86,0,0,1,1.13.7,9.59,9.59,0,0,1,1.54,1.88L281.79,82h-2.34l-1.86-2.93c-.55-.84-1-1.49-1.35-1.94a4,4,0,0,0-.95-.94,3,3,0,0,0-.85-.38,5.6,5.6,0,0,0-1-.06h-2.16V82Zm1.86-7.87h4a6.15,6.15,0,0,0,2-.26,2.09,2.09,0,0,0,1.09-.85,2.25,2.25,0,0,0,.38-1.26,2.07,2.07,0,0,0-.73-1.64,3.35,3.35,0,0,0-2.29-.65h-4.46Z"></path> <path class="cls-3" d="M295.11,77.1l1.87.47a6.4,6.4,0,0,1-2.11,3.51,5.85,5.85,0,0,1-3.73,1.2,6.67,6.67,0,0,1-3.7-.92,5.74,5.74,0,0,1-2.17-2.69,9.45,9.45,0,0,1-.75-3.78,8.37,8.37,0,0,1,.84-3.84,5.86,5.86,0,0,1,2.39-2.49,7.05,7.05,0,0,1,3.42-.85,5.81,5.81,0,0,1,3.56,1.08,5.61,5.61,0,0,1,2,3l-1.84.43A4.34,4.34,0,0,0,293.48,70a3.79,3.79,0,0,0-2.35-.7,4.52,4.52,0,0,0-2.71.78,4.07,4.07,0,0,0-1.54,2.09A9,9,0,0,0,287,78a3.87,3.87,0,0,0,1.63,2,4.5,4.5,0,0,0,2.39.67,4,4,0,0,0,2.65-.91A4.67,4.67,0,0,0,295.11,77.1Z"></path> <path class="cls-3" d="M300.81,82V68H311v1.67h-8.32V74h7.79v1.66h-7.79v4.79h8.65V82Z"></path> <path class="cls-3" d="M321.79,75.18a7.65,7.65,0,0,1,1.88-5.49,6.41,6.41,0,0,1,4.86-2,6.69,6.69,0,0,1,3.52.94,6,6,0,0,1,2.39,2.6,9,9,0,0,1,0,7.61A6.05,6.05,0,0,1,332,81.41a7,7,0,0,1-3.43.87,6.67,6.67,0,0,1-3.55-1,6.13,6.13,0,0,1-2.37-2.62A8,8,0,0,1,321.79,75.18Zm1.92,0a5.64,5.64,0,0,0,1.37,4,4.76,4.76,0,0,0,6.74.16l.16-.16a6,6,0,0,0,1.36-4.2,7.2,7.2,0,0,0-.58-3,4.5,4.5,0,0,0-4.22-2.71,4.73,4.73,0,0,0-3.4,1.36c-.95,1-1.43,2.46-1.43,4.58Z"></path> <path class="cls-3" d="M339.14,82V68h1.91l7.4,11V68h1.79V82h-1.91l-7.4-11V82Z"></path> <path class="cls-3" d="M359.2,82l5.41-14h2l5.78,14h-2.13l-1.64-4.26h-5.89L361.18,82Zm4.07-5.78H368l-1.47-3.9c-.45-1.19-.78-2.16-1-2.93a17.59,17.59,0,0,1-.76,2.69Z"></path> <path class="cls-3" d="M375.35,82V68h1.92l7.39,11V68h1.79V82h-1.91l-7.4-11V82Z"></path> <path class="cls-3" d="M395.05,82V76l-5.43-8h2.27l2.78,4.25c.51.8,1,1.59,1.43,2.39q.63-1.11,1.53-2.49L400.36,68h2.18l-5.63,8.13v6Z"></path> <path class="cls-3" d="M412.31,82V68h4.86a11.62,11.62,0,0,1,2.5.21,4.76,4.76,0,0,1,2.07,1,5.77,5.77,0,0,1,1.67,2.4A9.57,9.57,0,0,1,424,75a9.83,9.83,0,0,1-.37,2.85,6.82,6.82,0,0,1-1,2,5.19,5.19,0,0,1-1.28,1.28,5.08,5.08,0,0,1-1.68.7,9.54,9.54,0,0,1-2.26.24Zm1.87-1.66h3a7.62,7.62,0,0,0,2.18-.26,3.14,3.14,0,0,0,1.26-.73,4.43,4.43,0,0,0,1-1.78,8.93,8.93,0,0,0,.37-2.72,6.43,6.43,0,0,0-.73-3.39,3.54,3.54,0,0,0-1.76-1.59,7,7,0,0,0-2.41-.29h-3Z"></path> <path class="cls-3" d="M428.34,82V68h1.86V82Z"></path> <path class="cls-3" d="M434.35,77.52l1.76-.16a3.87,3.87,0,0,0,.58,1.74,3.19,3.19,0,0,0,1.42,1.09,5.75,5.75,0,0,0,4.05.1,2.64,2.64,0,0,0,1.21-.87,2,2,0,0,0,.4-1.2,1.86,1.86,0,0,0-.38-1.16,2.85,2.85,0,0,0-1.27-.83,23.86,23.86,0,0,0-2.51-.69,12.35,12.35,0,0,1-2.72-.88,3.9,3.9,0,0,1-1.51-1.31,3.17,3.17,0,0,1-.49-1.75,3.57,3.57,0,0,1,.61-2,3.75,3.75,0,0,1,1.76-1.41,6.73,6.73,0,0,1,2.59-.48,7,7,0,0,1,2.76.51,4,4,0,0,1,1.84,1.48,4.27,4.27,0,0,1,.69,2.22l-1.78.14a2.87,2.87,0,0,0-1-2,3.81,3.81,0,0,0-2.45-.68,3.92,3.92,0,0,0-2.47.62,1.83,1.83,0,0,0-.77,1.49,1.6,1.6,0,0,0,.55,1.25,7.23,7.23,0,0,0,2.81,1,19.75,19.75,0,0,1,3.11.9A4.27,4.27,0,0,1,445,76.06a3.55,3.55,0,0,1,.59,2,3.81,3.81,0,0,1-.65,2.12,4.11,4.11,0,0,1-1.85,1.55,6.32,6.32,0,0,1-2.71.55,8.17,8.17,0,0,1-3.21-.55,4.55,4.55,0,0,1-2-1.68A4.78,4.78,0,0,1,434.35,77.52Z"></path> <path class="cls-3" d="M449.61,82V68h5.31a12.87,12.87,0,0,1,2.15.14,4.06,4.06,0,0,1,1.74.66,3.46,3.46,0,0,1,1.13,1.36,4.61,4.61,0,0,1-.72,5c-.76.83-2.14,1.25-4.13,1.25h-3.62V82Zm1.86-7.39h3.65a3.82,3.82,0,0,0,2.56-.67,2.41,2.41,0,0,0,.76-1.89,2.51,2.51,0,0,0-.45-1.52,2.06,2.06,0,0,0-1.17-.83,8.44,8.44,0,0,0-1.74-.12h-3.61Z"></path> <path class="cls-3" d="M464.16,82V68H466V80.38h7V82Z"></path> <path class="cls-3" d="M475.13,82l5.41-14h2l5.77,14h-2.12l-1.64-4.26h-5.9L477.11,82Zm4.06-5.78H484l-1.47-3.9c-.45-1.19-.78-2.16-1-2.93a17.59,17.59,0,0,1-.76,2.69Z"></path> <path class="cls-3" d="M493.81,82V76l-5.43-8h2.27l2.77,4.25c.52.8,1,1.59,1.43,2.39.43-.74.94-1.57,1.54-2.49L499.12,68h2.17l-5.62,8.13v6Z"></path> <rect class="cls-4" x="169.13" y="59.39" width="332.5" height="1.67"></rect> <path class="cls-1" d="M73.25,89.57V37.94a6.79,6.79,0,0,0-6.77-6.77H8.39a6.79,6.79,0,0,0-6.77,6.77V89.57Z"></path> <g class="cls-5"> <path class="cls-6" d="M73.25,89.57V37.94a6.79,6.79,0,0,0-6.77-6.77H8.39a6.79,6.79,0,0,0-6.77,6.77V89.57Z"></path> <g class="cls-7"> <path class="cls-8" d="M0,90S101.25,78.34,146.12,6.24c-.12,63.41,0,84.63,0,84.63Z"></path> </g> </g> <g class="cls-9"> <path class="cls-10" d="M108.5,89.57V20.5a6.79,6.79,0,0,0-6.77-6.77H43.65a6.79,6.79,0,0,0-6.77,6.77v6.24h29.6A11.16,11.16,0,0,1,77.66,37.88v.06h0V89.57Z"></path> <g class="cls-7"> <path class="cls-11" d="M0,90S101.25,78.34,146.12,6.24c-.12,63.41,0,84.63,0,84.63Z"></path> </g> </g> <g class="cls-12"> <path class="cls-13" d="M144.5,89.57V6.77A6.79,6.79,0,0,0,137.73,0H79.65a6.79,6.79,0,0,0-6.77,6.77V9.3h28.85a11.1,11.1,0,0,1,7.9,3.27h0a11.17,11.17,0,0,1,3.27,7.91h0V89.57Z"></path> <g class="cls-7"> <path class="cls-14" d="M0,90S101.25,78.34,146.12,6.24c-.12,63.41,0,84.63,0,84.63Z"></path> </g> </g> </g> </g> </svg> 